# xmcd CD database file
# Copyright (C) 1993-1996 Ti Kan
#
# Track frame offsets:
# 150
# 13202
# 27655
# 41055
# 54737
# 67657
# 81037
# 94657
# 108377
# 122452
# 136137
# 148365
#
# Disc length: 2146 seconds
# Revision: 0
# Processed by: cddbd v1.4b41PL1 Copyright (c) Steve Scherf et al.
# Submitted via: CDSpectrumPro v3.2.327
#
DISCID=a408600c
DTITLE=Hank Williams ( as "Luke The Drifter" ) - Beyond The Sunset
DYEAR=1900
DGENRE=
TTITLE0=A Picture From Life's Other Side
TTITLE1=Men With Broken Hearts
TTITLE2=Help Me Understand
TTITLE3=Too Many Parties And Too Many Pals
TTITLE4=Why Don't You Make Up Your Mind
TTITLE5=I've Been Down That Road Before
TTITLE6=Be Careful Of Stones That You Throw
TTITLE7=I Dreamed About Mama Last Night
TTITLE8=The Funeral
TTITLE9=Beyond The Sunset
TTITLE10=Just Waitin'
TTITLE11=Everything's Okay
EXTD=
EXTT0=
EXTT1=
EXTT2=
EXTT3=
EXTT4=
EXTT5=
EXTT6=
EXTT7=
EXTT8=
EXTT9=
EXTT10=
EXTT11=
PLAYORDER=
